<svg width="222" height="38" viewBox="0 0 222 38" fill="none" xmlns="http://www.w3.org/2000/svg">
<g clip-path="url(#clip0_157_2527)">
<path d="M28 13.4189C27.3306 13.7125 26.6174 13.9071 25.8737 14.0016C26.6388 13.5449 27.2226 12.8271 27.4971 11.962C26.7839 12.3872 25.9964 12.6876 25.1571 12.8553C24.4799 12.1341 23.5146 11.6875 22.4616 11.6875C20.4186 11.6875 18.7739 13.3458 18.7739 15.3786C18.7739 15.6711 18.7986 15.9524 18.8594 16.2201C15.7915 16.0705 13.0769 14.6001 11.2533 12.3603C10.9349 12.9126 10.7481 13.5449 10.7481 14.2255C10.7481 15.5035 11.4062 16.6364 12.3872 17.2922C11.7944 17.281 11.2127 17.1089 10.72 16.8377C10.72 16.849 10.72 16.8636 10.72 16.8782C10.72 18.6715 11.9991 20.161 13.6765 20.5041C13.3761 20.5863 13.0487 20.6256 12.709 20.6256C12.4727 20.6256 12.2342 20.6121 12.0104 20.5626C12.4885 22.024 13.8453 23.0984 15.4585 23.1332C14.203 24.1154 12.6089 24.7071 10.8831 24.7071C10.5805 24.7071 10.2902 24.6936 10 24.6565C11.6346 25.7106 13.5719 26.3125 15.661 26.3125C22.4515 26.3125 26.164 20.6875 26.164 15.8117C26.164 15.6486 26.1584 15.4911 26.1505 15.3348C26.8829 14.815 27.4982 14.1659 28 13.4189Z" fill="#798DA3"/>
</g>
<circle opacity="0.15" cx="19" cy="19" r="18.5" stroke="#798DA3"/>
<circle opacity="0.15" cx="65" cy="19" r="18.5" stroke="#798DA3"/>
<g clip-path="url(#clip1_157_2527)">
<path d="M73.4377 10H69.2325L62.9854 20.9429L67.0106 28H71.2159L67.1906 20.9429L73.4377 10Z" fill="#798DA3"/>
<path d="M61.2459 13.375H57.2814L59.5752 17.4149L56.5625 22.375H60.527L63.5398 17.4149L61.2459 13.375Z" fill="#798DA3"/>
</g>
<circle opacity="0.15" cx="111" cy="19" r="18.5" stroke="#798DA3"/>
<g clip-path="url(#clip2_157_2527)">
<path d="M111 11.2C108.684 11.2 106.8 13.084 106.8 15.4V22.6C106.8 22.93 106.531 23.2 106.2 23.2C105.869 23.2 105.6 22.93 105.6 22.6V19.6H102V22.6C102 24.916 103.884 26.8 106.2 26.8C108.516 26.8 110.4 24.916 110.4 22.6V15.4C110.4 15.0688 110.669 14.8 111 14.8C111.331 14.8 111.6 15.0688 111.6 15.4V17.6788L113.4 18.8788L115.2 17.6788V15.4C115.2 13.084 113.316 11.2 111 11.2Z" fill="#798DA3"/>
<path d="M116.4 19.5999V22.5999C116.4 22.9299 116.13 23.1999 115.8 23.1999C115.47 23.1999 115.2 22.9299 115.2 22.5999V19.1211L113.732 20.0991C113.632 20.1663 113.516 20.1999 113.4 20.1999C113.284 20.1999 113.168 20.1663 113.068 20.0991L111.6 19.1211V22.5999C111.6 24.9159 113.484 26.7999 115.8 26.7999C118.116 26.7999 120 24.9159 120 22.5999V19.5999H116.4Z" fill="#798DA3"/>
</g>
<circle opacity="0.15" cx="157" cy="19" r="18.5" stroke="#798DA3"/>
<path d="M159.384 15.0076C159.384 13.7363 159.872 13.0748 160.561 13.0748C161.217 13.0748 161.654 13.6686 161.654 14.8721C161.654 15.5569 161.472 16.3074 161.338 16.7509C161.339 16.7519 161.992 17.9003 163.778 17.5479C164.157 16.699 164.364 15.5992 164.364 14.635C164.364 12.0407 163.051 10.5313 160.646 10.5313C158.173 10.5313 156.727 12.4482 156.727 14.9747C156.727 17.478 157.888 19.6278 159.802 20.6068C158.997 22.2295 157.973 23.6595 156.905 24.737C154.968 22.3745 153.216 19.2245 152.496 13.0759H149.636C150.957 23.3165 154.894 26.5766 155.934 27.2032C156.523 27.5599 157.031 27.543 157.568 27.2371C158.413 26.7523 160.951 24.195 162.357 21.1985C162.946 21.1964 163.656 21.1287 164.363 20.9667V18.9503C163.93 19.0509 163.512 19.0954 163.135 19.0954C161.015 19.0954 159.384 17.6029 159.384 15.0076Z" fill="#798DA3"/>
<circle opacity="0.15" cx="203" cy="19" r="18.5" stroke="#798DA3"/>
<path d="M209.223 17.9909C209.065 17.938 208.912 17.8874 208.766 17.839C207.645 17.4734 206.97 17.2517 206.97 16.3461C206.97 15.6115 207.516 15.0794 208.267 15.0794C208.843 15.0794 209.273 15.328 209.658 15.8883C209.694 15.94 209.762 15.9591 209.818 15.9288L210.948 15.3291C210.979 15.3134 211.002 15.2852 211.011 15.2504C211.02 15.2155 211.017 15.1795 211.001 15.148C210.395 14.0298 209.522 13.4864 208.33 13.4864C206.518 13.4864 205.346 14.626 205.346 16.3889C205.346 18.1911 206.48 18.9212 208.57 19.6356C209.78 20.0552 210.317 20.2769 210.317 21.1724C210.317 22.1792 209.443 22.9026 208.25 22.8599C207 22.816 206.622 22.1286 206.147 21.0014C205.341 19.0923 204.424 16.8648 204.416 16.8434C203.497 14.6384 201.674 13.375 199.413 13.375C196.429 13.375 194 15.8984 194 19.0011C194 22.1016 196.429 24.625 199.413 24.625C201.041 24.625 202.568 23.8757 203.601 22.5674C203.63 22.5291 203.638 22.4774 203.619 22.4324L202.937 20.7966C202.918 20.7516 202.874 20.7201 202.826 20.7179C202.776 20.7156 202.732 20.7437 202.71 20.7876C202.065 22.0667 200.802 22.861 199.413 22.861C197.365 22.861 195.699 21.1296 195.699 19C195.699 16.8704 197.365 15.139 199.413 15.139C200.905 15.139 202.271 16.0581 202.814 17.4306L204.503 21.43L204.698 21.8789C205.46 23.725 206.582 24.553 208.338 24.5598C210.426 24.5598 212 23.122 212 21.2163C212 19.3049 210.982 18.5871 209.223 17.9909Z" fill="#798DA3"/>
<defs>
<clipPath id="clip0_157_2527">
<rect width="18" height="18" fill="white" transform="translate(10 10)"/>
</clipPath>
<clipPath id="clip1_157_2527">
<rect width="18" height="18" fill="white" transform="translate(56 10)"/>
</clipPath>
<clipPath id="clip2_157_2527">
<rect width="18" height="18" fill="white" transform="translate(102 10)"/>
</clipPath>
</defs>
</svg>
