<svg width="62" height="15" viewBox="0 0 62 15" fill="none" xmlns="http://www.w3.org/2000/svg">
<path d="M5.45486 2.71858H0.664062V0.666626H12.9862V2.71858H8.21636V14.0906H5.45486V2.71858Z" fill="#BBED55"/>
<path d="M19.4302 12.1154C19.0676 12.8825 18.5376 13.4578 17.8403 13.8413C17.1429 14.2249 16.341 14.4166 15.4344 14.4166C14.6813 14.4166 14.0049 14.2888 13.4051 14.0331C12.8054 13.7774 12.3312 13.3938 11.9825 12.8825C11.6339 12.3711 11.4595 11.7574 11.4595 11.0415C11.4595 9.91639 11.871 9.07899 12.6938 8.52925C13.5307 7.9795 14.5767 7.70463 15.8319 7.70463H17.6938C18.2517 7.70463 18.6701 7.60875 18.9491 7.41698C19.228 7.21242 19.3675 6.92476 19.3675 6.55401C19.3675 6.09375 19.1583 5.74217 18.7399 5.49926C18.3354 5.25635 17.8124 5.1349 17.1708 5.1349C16.4177 5.1349 15.818 5.29471 15.3717 5.61433C14.9393 5.93394 14.7022 6.38141 14.6604 6.95672H11.8989C11.9825 5.78053 12.4567 4.86642 13.3215 4.21439C14.1862 3.54959 15.4553 3.21718 17.129 3.21718C18.2587 3.21718 19.1862 3.3706 19.9114 3.67744C20.6367 3.98427 21.1666 4.41256 21.5014 4.9623C21.8361 5.51205 22.0035 6.15129 22.0035 6.88002V11.4058C22.0035 11.6615 22.0593 11.8469 22.1708 11.962C22.2964 12.0642 22.4986 12.1154 22.7775 12.1154H23.2169V14.0906H21.4177C20.7901 14.0906 20.3089 13.9564 19.9742 13.6879C19.6394 13.4066 19.4721 13.0167 19.4721 12.5181V12.1154H19.4302ZM16.2503 12.4606C16.7943 12.4606 17.3033 12.3519 17.7775 12.1345C18.2517 11.9172 18.6353 11.5784 18.9282 11.1182C19.221 10.6451 19.3675 10.0634 19.3675 9.37304V8.39501H19.3256C19.1304 8.72741 18.8584 8.97671 18.5097 9.14292C18.1611 9.29633 17.6938 9.38583 17.1081 9.4114L16.2503 9.44975C15.5948 9.47532 15.0997 9.62234 14.765 9.89083C14.4442 10.1593 14.2838 10.5109 14.2838 10.9456C14.2838 11.393 14.4442 11.7574 14.765 12.0387C15.0858 12.3199 15.5809 12.4606 16.2503 12.4606Z" fill="#BBED55"/>
<path d="M24.7753 0.666626H27.4113V14.0906H24.7753V0.666626Z" fill="#BBED55"/>
<path d="M34.9636 14.4166C33.8338 14.4166 32.8366 14.1929 31.9719 13.7454C31.1072 13.298 30.4378 12.6523 29.9636 11.8085C29.4894 10.9647 29.2523 9.96753 29.2523 8.81691C29.2523 7.66628 29.4894 6.66907 29.9636 5.82527C30.4517 4.98148 31.1212 4.33585 31.9719 3.88838C32.8366 3.44092 33.8269 3.21718 34.9426 3.21718C36.0026 3.21718 36.951 3.41535 37.7878 3.81168C38.6246 4.208 39.2802 4.7961 39.7543 5.57597C40.2285 6.35584 40.4656 7.30191 40.4656 8.41419V9.50728H32.0556C32.0974 10.1082 32.2369 10.6387 32.474 11.099C32.7251 11.5465 33.0668 11.8916 33.4991 12.1345C33.9315 12.3775 34.4336 12.4989 35.0054 12.4989C35.647 12.4989 36.1909 12.3519 36.6372 12.0578C37.0835 11.7638 37.4043 11.3611 37.5995 10.8497H40.3192C40.1518 11.5528 39.8241 12.1729 39.3359 12.7099C38.8617 13.2468 38.2481 13.6687 37.4949 13.9756C36.7418 14.2696 35.898 14.4166 34.9636 14.4166ZM37.8087 7.76216C37.8087 7.23799 37.6972 6.77774 37.474 6.38141C37.2509 5.98508 36.9301 5.67825 36.5117 5.46091C36.0933 5.24357 35.5912 5.1349 35.0054 5.1349C34.4196 5.1349 33.9175 5.24996 33.4991 5.48008C33.0807 5.71021 32.753 6.02344 32.5159 6.41976C32.2788 6.80331 32.1323 7.25077 32.0765 7.76216H37.8087Z" fill="#BBED55"/>
<path d="M42.2635 3.5432H44.8576V5.15407H44.8995C45.2482 4.52762 45.7224 4.04819 46.3221 3.71579C46.9357 3.38339 47.6401 3.21718 48.4351 3.21718C49.2161 3.21718 49.8995 3.38339 50.4853 3.71579C51.071 4.03541 51.5243 4.51484 51.8451 5.15407C52.1659 5.79331 52.3263 6.56679 52.3263 7.47451V14.0906H49.6903V7.76216C49.6903 6.88002 49.495 6.22799 49.1045 5.8061C48.7279 5.37142 48.198 5.15407 47.5145 5.15407C47.0404 5.15407 46.608 5.25635 46.2175 5.46091C45.827 5.65268 45.5062 5.96591 45.2551 6.40059C45.018 6.83527 44.8995 7.38501 44.8995 8.04982V14.0906H42.2635V3.5432Z" fill="#BBED55"/>
<path d="M58.7505 14.0906C57.7184 14.0906 56.9374 13.8541 56.4074 13.3811C55.8774 12.8952 55.6124 12.1793 55.6124 11.2332V0.666626H58.2693V10.8689C58.2693 11.3035 58.3809 11.6232 58.604 11.8277C58.8411 12.0195 59.1898 12.1154 59.6501 12.1154H61.8049V14.0906H58.7505ZM53.3948 3.5432H61.7421V5.51844H53.3948V3.5432Z" fill="#BBED55"/>
</svg>
