<svg width="16" height="17" viewBox="0 0 16 17" fill="none" xmlns="http://www.w3.org/2000/svg">
<g clip-path="url(#clip0_13695_2931)">
<path d="M6.31579 14.8158C8.87377 14.8158 10.9474 12.7422 10.9474 10.1842C10.9474 7.62622 8.87377 5.55262 6.31579 5.55262C3.75781 5.55262 1.68421 7.62622 1.68421 10.1842C1.68421 12.7422 3.75781 14.8158 6.31579 14.8158ZM6.31579 16.5C2.82779 16.5 0 13.6722 0 10.1842C0 6.6962 2.82779 3.86841 6.31579 3.86841C9.80379 3.86841 12.6316 6.6962 12.6316 10.1842C12.6316 13.6722 9.80379 16.5 6.31579 16.5Z" fill="#FBCC5C"/>
<path d="M9.68444 11.4474C12.2424 11.4474 14.316 9.37377 14.316 6.81579C14.316 4.25781 12.2424 2.18421 9.68444 2.18421C7.12646 2.18421 5.05286 4.25781 5.05286 6.81579C5.05286 9.37377 7.12646 11.4474 9.68444 11.4474ZM9.68444 13.1316C6.19644 13.1316 3.36865 10.3038 3.36865 6.81579C3.36865 3.32779 6.19644 0.5 9.68444 0.5C13.1724 0.5 16.0002 3.32779 16.0002 6.81579C16.0002 10.3038 13.1724 13.1316 9.68444 13.1316Z" fill="#35D07F"/>
<path d="M9.89312 13.1316C10.331 12.6009 10.6449 11.9791 10.8119 11.3116C11.4793 11.1447 12.1011 10.8309 12.6318 10.393C12.6076 11.166 12.4411 11.928 12.1407 12.6406C11.428 12.941 10.6661 13.1074 9.89312 13.1316ZM5.18861 5.68837C4.52114 5.85525 3.89935 6.16907 3.36865 6.60693C3.39285 5.83393 3.55934 5.072 3.85977 4.35936C4.57243 4.05898 5.33435 3.89255 6.10735 3.86841C5.66943 4.3991 5.35555 5.02088 5.18861 5.68837V5.68837Z" fill="#5EA33B"/>
</g>
<defs>
<clipPath id="clip0_13695_2931">
<rect width="16" height="16" fill="white" transform="translate(0 0.5)"/>
</clipPath>
</defs>
</svg>
